<svg width="35" height="35" viewBox="0 0 35 35" fill="none" xmlns="http://www.w3.org/2000/svg">
<g clip-path="url(#clip0_58_5)">
<path d="M17.5 34.75C27.0269 34.75 34.75 27.0269 34.75 17.5C34.75 7.97309 27.0269 0.25 17.5 0.25C7.97309 0.25 0.25 7.97309 0.25 17.5C0.25 27.0269 7.97309 34.75 17.5 34.75Z" stroke="#5E5E5E" stroke-width="0.5"/>
<g clip-path="url(#clip1_58_5)">
<path d="M12.3124 9.04375C11.8557 9.14219 11.3881 9.50859 11.1803 9.92969C10.8631 10.5777 10.9835 11.3379 11.4811 11.8574C12.1374 12.541 13.2284 12.541 13.8819 11.8574C14.3823 11.3352 14.4999 10.5805 14.1799 9.93242C14.035 9.63711 13.7151 9.31719 13.428 9.18047C13.0671 9.0082 12.6897 8.96172 12.3124 9.04375Z" fill="black"/>
<path d="M20.8875 13.4707C20.0426 13.632 19.3234 14.0914 18.8805 14.7559L18.752 14.9473L18.7437 14.2965L18.7383 13.6484H17.3437H15.9492V18.3242V23H17.3984H18.8477V20.5445C18.8477 19.0188 18.8586 17.9742 18.8777 17.7801C18.9707 16.782 19.3426 16.227 20.0426 16.041C20.2914 15.9727 20.7125 15.959 20.9477 16.0109C21.3988 16.1066 21.6504 16.3008 21.8418 16.6945C22.0879 17.2086 22.1016 17.3891 22.1016 20.4598V23H23.5508H25V20.1891C25 18.5813 24.9891 17.2168 24.9727 16.998C24.8797 15.7102 24.598 14.8898 24.0457 14.2992C23.6738 13.9027 23.1789 13.6457 22.5145 13.5063C22.1562 13.4324 21.2047 13.4133 20.8875 13.4707Z" fill="black"/>
<path d="M11.2379 13.6676C11.227 13.6758 11.2188 15.7812 11.2188 18.3434V23H12.6816H14.1445L14.1391 18.3297L14.1309 13.6621L12.6926 13.6539C11.9023 13.6512 11.2461 13.6566 11.2379 13.6676Z" fill="black"/>
</g>
</g>
<defs>
<clipPath id="clip0_58_5">
<rect width="35" height="35" fill="white"/>
</clipPath>
<clipPath id="clip1_58_5">
<rect width="14" height="14" fill="white" transform="translate(11 9)"/>
</clipPath>
</defs>
</svg>
