<svg width="2430" height="761" viewBox="0 0 2430 761" fill="none" xmlns="http://www.w3.org/2000/svg">
<path d="M209.982 0.983743C153.806 7.44552 104.3 31.7293 65.6339 71.5422C30.0942 108.124 8.93705 151.481 1.32883 203.279C-0.442944 215.369 -0.442944 250.075 1.32883 264.249C6.22728 303.437 23.2155 353.359 43.5388 388.69L47.0824 394.839L47.8119 391.296C48.7499 386.502 53.3357 377.747 57.713 372.327C65.3213 362.947 78.0364 354.922 89.2924 352.317C94.5035 351.17 102.529 350.753 120.246 350.753H144.322V340.227V329.7L137.756 322.196C120.663 303.02 111.283 285.927 105.238 262.998C89.1881 201.82 118.891 137.202 176.422 108.541C193.515 99.9948 217.694 94.3668 237.288 94.3668C273.036 94.3668 305.241 107.082 330.671 131.366C351.098 150.751 364.126 173.784 370.067 200.882C372.672 212.763 373.194 237.777 371.109 250.283C366.523 276.964 354.955 300.414 335.465 322.196L328.795 329.7V340.227V350.753H353.183C380.906 350.753 385.7 351.379 396.122 356.59C409.463 363.156 420.198 375.141 424.784 388.482L426.451 393.589L434.372 378.164C453.445 340.644 465.013 305.625 470.537 268.418C473.56 248.511 473.768 219.225 471.162 201.195C462.304 141.371 432.809 89.5726 385.596 51.0104C355.059 25.9971 313.891 8.07085 273.349 2.02596C258.341 -0.162701 224.885 -0.683812 209.982 0.983743Z" fill="#0F4F7C"/>
<path d="M189.971 300.623C178.819 304.27 172.253 310.003 167.354 320.529C164.749 326.053 164.645 327.095 164.332 348.356L163.915 370.452L128.375 370.764L92.7313 371.077L86.478 373.995C78.4529 377.747 71.1573 385.459 68.5518 392.755C66.8842 397.549 66.6758 401.927 66.6758 428.92V459.561L80.2247 463.001C97.0044 467.274 123.06 472.068 144.321 474.674C157.87 476.445 195.286 479.989 200.08 479.989C201.018 479.989 201.539 477.696 201.852 471.651C202.165 464.668 202.582 463.001 204.562 461.021C206.855 458.623 207.376 458.623 234.995 458.311C270.951 457.894 271.472 458.102 271.472 473.319C271.472 478.321 271.785 479.989 272.931 479.989C278.976 479.989 318.372 476.341 334.527 474.257C357.977 471.234 370.796 468.837 391.641 463.626L406.961 459.77V429.337C406.961 392.442 406.649 391.087 397.06 381.395C392.057 376.288 389.452 374.62 384.137 372.849C377.779 370.66 375.486 370.556 343.177 370.556H308.992V351.483C308.992 324.698 307.012 318.028 295.756 307.918C285.959 299.268 286.063 299.268 238.121 298.955C199.559 298.747 195.39 298.851 189.971 300.623ZM276.162 334.495C277.517 336.475 277.726 339.914 277.517 353.463L277.205 370.035H236.558H195.911V352.734C195.911 339.602 196.224 335.016 197.37 333.765C198.621 332.202 202.686 331.994 236.662 331.994H274.599L276.162 334.495Z" fill="#0F4F7C"/>
<path d="M221.446 496.143V513.34H236.871H252.192V496.143V478.947H236.871H221.446V496.143Z" fill="#0F4F7C"/>
<path d="M66.3635 533.872C66.7804 594.112 66.5719 592.445 74.2844 604.013C79.287 611.309 86.8952 617.041 95.233 619.647C100.757 621.418 104.821 621.731 121.289 621.731L140.674 621.835L178.194 681.346C230.305 764.203 226.032 757.741 231.035 759.825C236.246 761.91 241.769 761.18 245.626 757.949C247.085 756.699 259.8 737.313 273.974 715.01C288.044 692.602 307.012 662.586 316.08 648.308L332.651 622.252L353.912 621.627C376.946 621.001 380.072 620.376 388.618 614.54C394.976 610.162 399.458 604.639 403.21 596.718L406.44 589.943L406.753 534.81C407.066 482.178 406.962 479.78 405.19 480.51C395.706 484.262 358.811 492.079 334.006 495.518C317.539 497.811 285.751 500.833 276.997 500.833H271.473V513.34C271.473 526.785 270.535 530.224 266.574 531.996C264.907 532.725 254.38 533.142 236.037 533.142H208.001L205.083 530.641C202.165 528.14 202.165 527.931 201.852 514.486L201.435 500.833H196.641C189.137 500.833 159.225 497.915 141.195 495.518C122.539 493.017 89.2924 486.346 76.473 482.594C71.6788 481.24 67.3015 479.989 66.8846 479.989C66.4677 479.989 66.2593 504.273 66.3635 533.872Z" fill="#0F4F7C"/>
<path d="M531.408 532.864V192.364H599.121V233.959H602.184C605.193 227.295 609.546 220.524 615.243 213.645C621.047 206.659 628.571 200.855 637.814 196.233C647.165 191.504 658.773 189.139 672.638 189.139C690.695 189.139 707.354 193.868 722.616 203.327C737.879 212.678 750.078 226.811 759.214 245.728C768.35 264.537 772.918 288.129 772.918 316.504C772.918 344.127 768.457 367.45 759.536 386.474C750.723 405.391 738.685 419.74 723.423 429.521C708.268 439.194 691.286 444.031 672.477 444.031C659.149 444.031 647.81 441.827 638.459 437.42C629.215 433.014 621.638 427.478 615.727 420.815C609.815 414.043 605.301 407.218 602.184 400.339H600.088V532.864H531.408ZM598.637 316.182C598.637 330.907 600.679 343.751 604.763 354.714C608.848 365.677 614.759 374.222 622.498 380.348C630.237 386.367 639.641 389.376 650.712 389.376C661.89 389.376 671.348 386.313 679.087 380.187C686.825 373.953 692.683 365.354 696.66 354.391C700.744 343.321 702.786 330.584 702.786 316.182C702.786 301.887 700.798 289.312 696.821 278.456C692.844 267.6 686.987 259.109 679.248 252.983C671.509 246.857 661.997 243.793 650.712 243.793C639.534 243.793 630.075 246.749 622.337 252.661C614.705 258.572 608.848 266.955 604.763 277.811C600.679 288.667 598.637 301.457 598.637 316.182ZM809.625 532.864V192.364H877.338V233.959H880.401C883.41 227.295 887.763 220.524 893.46 213.645C899.264 206.659 906.787 200.855 916.031 196.233C925.382 191.504 936.99 189.139 950.855 189.139C968.911 189.139 985.571 193.868 1000.83 203.327C1016.1 212.678 1028.29 226.811 1037.43 245.728C1046.57 264.537 1051.13 288.129 1051.13 316.504C1051.13 344.127 1046.67 367.45 1037.75 386.474C1028.94 405.391 1016.9 419.74 1001.64 429.521C986.485 439.194 969.503 444.031 950.693 444.031C937.366 444.031 926.027 441.827 916.676 437.42C907.432 433.014 899.855 427.478 893.943 420.815C888.032 414.043 883.518 407.218 880.401 400.339H878.305V532.864H809.625ZM876.854 316.182C876.854 330.907 878.896 343.751 882.98 354.714C887.065 365.677 892.976 374.222 900.715 380.348C908.453 386.367 917.858 389.376 928.929 389.376C940.107 389.376 949.565 386.313 957.304 380.187C965.042 373.953 970.9 365.354 974.877 354.391C978.961 343.321 981.003 330.584 981.003 316.182C981.003 301.887 979.015 289.312 975.038 278.456C971.061 267.6 965.203 259.109 957.465 252.983C949.726 246.857 940.214 243.793 928.929 243.793C917.751 243.793 908.292 246.749 900.554 252.661C892.922 258.572 887.065 266.955 882.98 277.811C878.896 288.667 876.854 301.457 876.854 316.182ZM1199.73 444.837C1174.69 444.837 1153.03 439.516 1134.76 428.876C1116.59 418.128 1102.57 403.188 1092.68 384.056C1082.79 364.817 1077.85 342.515 1077.85 317.149C1077.85 291.569 1082.79 269.213 1092.68 250.081C1102.57 230.842 1116.59 215.902 1134.76 205.261C1153.03 194.513 1174.69 189.139 1199.73 189.139C1224.77 189.139 1246.38 194.513 1264.54 205.261C1282.81 215.902 1296.89 230.842 1306.78 250.081C1316.67 269.213 1321.61 291.569 1321.61 317.149C1321.61 342.515 1316.67 364.817 1306.78 384.056C1296.89 403.188 1282.81 418.128 1264.54 428.876C1246.38 439.516 1224.77 444.837 1199.73 444.837ZM1200.05 391.634C1211.44 391.634 1220.96 388.409 1228.59 381.96C1236.22 375.404 1241.97 366.483 1245.84 355.197C1249.82 343.912 1251.8 331.068 1251.8 316.665C1251.8 302.263 1249.82 289.419 1245.84 278.134C1241.97 266.848 1236.22 257.927 1228.59 251.371C1220.96 244.814 1211.44 241.536 1200.05 241.536C1188.55 241.536 1178.88 244.814 1171.03 251.371C1163.29 257.927 1157.44 266.848 1153.46 278.134C1149.59 289.419 1147.65 302.263 1147.65 316.665C1147.65 331.068 1149.59 343.912 1153.46 355.197C1157.44 366.483 1163.29 375.404 1171.03 381.96C1178.88 388.409 1188.55 391.634 1200.05 391.634ZM1357.19 440V192.364H1423.78V235.571H1426.36C1430.87 220.201 1438.45 208.593 1449.09 200.747C1459.73 192.794 1471.98 188.817 1485.85 188.817C1489.29 188.817 1492.99 189.032 1496.97 189.462C1500.95 189.892 1504.44 190.483 1507.45 191.235V252.177C1504.23 251.21 1499.76 250.35 1494.07 249.597C1488.37 248.845 1483.16 248.469 1478.43 248.469C1468.33 248.469 1459.3 250.672 1451.34 255.079C1443.5 259.378 1437.26 265.397 1432.64 273.136C1428.13 280.874 1425.87 289.795 1425.87 299.898V440H1357.19ZM1648.99 192.364V224.608H1520.66V192.364H1648.99ZM1558.06 133.034H1596.11V369.062C1596.11 379.811 1597.67 387.872 1600.79 393.246C1604.01 398.512 1608.09 402.059 1613.04 403.886C1618.09 405.606 1623.41 406.466 1629 406.466C1633.19 406.466 1636.63 406.251 1639.32 405.821C1642 405.284 1644.15 404.854 1645.77 404.531L1653.51 438.71C1650.93 439.678 1647.32 440.645 1642.7 441.612C1638.08 442.687 1632.22 443.224 1625.13 443.224C1614.38 443.224 1603.85 440.914 1593.53 436.292C1583.32 431.67 1574.83 424.63 1568.06 415.172C1561.39 405.714 1558.06 393.783 1558.06 379.381V133.034ZM1853.21 338.753V192.364H1891.26V440H1853.21V398.082H1850.63C1844.82 410.658 1835.8 421.352 1823.54 430.165C1811.29 438.871 1795.81 443.224 1777.11 443.224C1761.63 443.224 1747.88 439.839 1735.84 433.067C1723.8 426.189 1714.34 415.871 1707.46 402.113C1700.58 388.248 1697.14 370.782 1697.14 349.716V192.364H1735.19V347.136C1735.19 365.193 1740.24 379.596 1750.35 390.344C1760.56 401.092 1773.56 406.466 1789.36 406.466C1798.82 406.466 1808.44 404.048 1818.22 399.211C1828.11 394.374 1836.39 386.958 1843.05 376.962C1849.82 366.967 1853.21 354.23 1853.21 338.753ZM1989.91 291.031V440H1951.86V192.364H1988.62V231.057H1991.85C1997.65 218.482 2006.46 208.378 2018.29 200.747C2030.11 193.009 2045.37 189.139 2064.07 189.139C2080.84 189.139 2095.51 192.579 2108.09 199.457C2120.66 206.229 2130.44 216.547 2137.43 230.412C2144.42 244.17 2147.91 261.581 2147.91 282.648V440H2109.86V285.227C2109.86 265.773 2104.81 250.618 2094.71 239.763C2084.6 228.8 2070.74 223.318 2053.11 223.318C2040.97 223.318 2030.11 225.951 2020.54 231.218C2011.09 236.485 2003.62 244.17 1998.13 254.273C1992.65 264.376 1989.91 276.629 1989.91 291.031ZM2281.23 445.804C2265.54 445.804 2251.29 442.848 2238.5 436.937C2225.71 430.918 2215.56 422.266 2208.03 410.98C2200.51 399.587 2196.75 385.83 2196.75 369.707C2196.75 355.52 2199.54 344.019 2205.13 335.206C2210.72 326.285 2218.19 319.299 2227.54 314.247C2236.89 309.196 2247.21 305.434 2258.5 302.962C2269.89 300.382 2281.34 298.34 2292.84 296.835C2307.88 294.901 2320.08 293.45 2329.43 292.482C2338.89 291.407 2345.77 289.634 2350.07 287.162C2354.48 284.69 2356.68 280.391 2356.68 274.264V272.974C2356.68 257.067 2352.33 244.707 2343.62 235.893C2335.02 227.08 2321.96 222.673 2304.44 222.673C2286.28 222.673 2272.04 226.65 2261.72 234.604C2251.4 242.557 2244.15 251.048 2239.96 260.077L2203.84 247.179C2210.29 232.132 2218.89 220.416 2229.64 212.033C2240.49 203.542 2252.32 197.63 2265.11 194.298C2278 190.859 2290.69 189.139 2303.15 189.139C2311.11 189.139 2320.24 190.107 2330.56 192.041C2340.99 193.868 2351.04 197.684 2360.71 203.488C2370.49 209.292 2378.61 218.052 2385.05 229.767C2391.5 241.482 2394.73 257.175 2394.73 276.844V440H2356.68V406.466H2354.74C2352.17 411.84 2347.87 417.59 2341.85 423.717C2335.83 429.843 2327.82 435.056 2317.83 439.355C2307.83 443.654 2295.63 445.804 2281.23 445.804ZM2287.03 411.625C2302.08 411.625 2314.76 408.669 2325.08 402.758C2335.51 396.846 2343.35 389.215 2348.62 379.864C2353.99 370.513 2356.68 360.679 2356.68 350.361V315.537C2355.07 317.472 2351.52 319.245 2346.04 320.857C2340.66 322.362 2334.43 323.705 2327.34 324.888C2320.35 325.963 2313.53 326.93 2306.86 327.79C2300.31 328.542 2294.99 329.187 2290.9 329.724C2281.01 331.014 2271.77 333.11 2263.17 336.012C2254.68 338.807 2247.8 343.052 2242.53 348.749C2237.38 354.338 2234.8 361.969 2234.8 371.642C2234.8 384.862 2239.69 394.858 2249.47 401.629C2259.36 408.293 2271.88 411.625 2287.03 411.625Z" fill="#2F2F2F"/>
</svg>
