<svg width="2264" height="761" viewBox="0 0 2264 761" fill="none" xmlns="http://www.w3.org/2000/svg">
<path d="M209.982 0.983795C153.806 7.44559 104.3 31.7293 65.6339 71.5422C30.0942 108.124 8.93705 151.481 1.32883 203.279C-0.442944 215.369 -0.442944 250.075 1.32883 264.249C6.22728 303.437 23.2155 353.359 43.5388 388.69L47.0824 394.839L47.8119 391.296C48.7499 386.502 53.3357 377.747 57.713 372.327C65.3213 362.947 78.0364 354.922 89.2924 352.317C94.5035 351.17 102.529 350.753 120.246 350.753H144.322V340.227V329.701L137.756 322.197C120.663 303.02 111.283 285.927 105.238 262.998C89.1881 201.82 118.891 137.202 176.422 108.541C193.515 99.9949 217.694 94.3669 237.288 94.3669C273.036 94.3669 305.241 107.082 330.671 131.366C351.098 150.751 364.126 173.784 370.067 200.882C372.672 212.763 373.194 237.777 371.109 250.283C366.523 276.964 354.955 300.414 335.465 322.197L328.795 329.701V340.227V350.753H353.183C380.906 350.753 385.7 351.379 396.122 356.59C409.463 363.156 420.198 375.141 424.784 388.482L426.451 393.589L434.372 378.164C453.445 340.644 465.013 305.625 470.537 268.418C473.56 248.511 473.768 219.225 471.162 201.195C462.304 141.371 432.809 89.5727 385.596 51.0104C355.059 25.9971 313.891 8.07092 273.349 2.02603C258.341 -0.162628 224.885 -0.683746 209.982 0.983795Z" fill="#0F4F7C"/>
<path d="M189.971 300.623C178.819 304.27 172.253 310.003 167.354 320.529C164.749 326.053 164.645 327.095 164.332 348.356L163.915 370.451L128.375 370.764L92.7313 371.077L86.478 373.995C78.4529 377.747 71.1573 385.459 68.5518 392.755C66.8842 397.549 66.6758 401.927 66.6758 428.92V459.561L80.2247 463.001C97.0044 467.274 123.06 472.068 144.321 474.674C157.87 476.445 195.286 479.989 200.08 479.989C201.018 479.989 201.539 477.696 201.852 471.651C202.165 464.668 202.582 463.001 204.562 461.021C206.855 458.623 207.376 458.623 234.995 458.311C270.951 457.894 271.472 458.102 271.472 473.319C271.472 478.321 271.785 479.989 272.931 479.989C278.976 479.989 318.372 476.341 334.527 474.257C357.977 471.234 370.796 468.837 391.641 463.626L406.961 459.77V429.337C406.961 392.442 406.649 391.087 397.06 381.395C392.057 376.288 389.452 374.62 384.137 372.849C377.779 370.66 375.486 370.556 343.177 370.556H308.992V351.483C308.992 324.698 307.012 318.028 295.756 307.918C285.959 299.268 286.063 299.268 238.121 298.955C199.559 298.747 195.39 298.851 189.971 300.623ZM276.162 334.495C277.517 336.475 277.726 339.914 277.517 353.463L277.205 370.035H236.558H195.911V352.734C195.911 339.602 196.224 335.016 197.37 333.765C198.621 332.202 202.686 331.993 236.662 331.993H274.599L276.162 334.495Z" fill="#0F4F7C"/>
<path d="M221.446 496.143V513.34H236.871H252.191V496.143V478.947H236.871H221.446V496.143Z" fill="#0F4F7C"/>
<path d="M66.3635 533.872C66.7804 594.112 66.5719 592.445 74.2844 604.013C79.287 611.309 86.8952 617.041 95.233 619.647C100.757 621.418 104.821 621.731 121.289 621.731L140.674 621.835L178.194 681.346C230.305 764.203 226.032 757.741 231.035 759.825C236.246 761.91 241.769 761.18 245.626 757.949C247.085 756.699 259.8 737.313 273.974 715.01C288.044 692.602 307.012 662.586 316.08 648.308L332.651 622.252L353.912 621.627C376.946 621.001 380.072 620.376 388.618 614.54C394.976 610.162 399.458 604.639 403.21 596.718L406.44 589.943L406.753 534.81C407.066 482.178 406.962 479.78 405.19 480.51C395.706 484.262 358.811 492.079 334.006 495.518C317.539 497.811 285.751 500.833 276.997 500.833H271.473V513.34C271.473 526.785 270.535 530.224 266.574 531.996C264.907 532.725 254.38 533.142 236.037 533.142H208.001L205.083 530.641C202.165 528.14 202.165 527.931 201.852 514.486L201.435 500.833H196.641C189.137 500.833 159.225 497.915 141.195 495.518C122.539 493.017 89.2924 486.346 76.473 482.594C71.6788 481.24 67.3015 479.989 66.8846 479.989C66.4677 479.989 66.2593 504.273 66.3635 533.872Z" fill="#0F4F7C"/>
<path d="M531.408 532.864V192.364H599.121V233.959H602.184C605.193 227.295 609.546 220.524 615.243 213.645C621.047 206.659 628.571 200.855 637.814 196.233C647.165 191.504 658.773 189.139 672.638 189.139C690.695 189.139 707.354 193.868 722.616 203.327C737.879 212.678 750.078 226.811 759.214 245.728C768.35 264.537 772.918 288.129 772.918 316.504C772.918 344.127 768.457 367.45 759.536 386.474C750.723 405.391 738.685 419.74 723.423 429.521C708.268 439.194 691.286 444.031 672.477 444.031C659.149 444.031 647.81 441.827 638.459 437.42C629.215 433.014 621.638 427.478 615.727 420.815C609.815 414.043 605.301 407.218 602.184 400.339H600.088V532.864H531.408ZM598.637 316.182C598.637 330.907 600.679 343.751 604.763 354.714C608.848 365.677 614.759 374.222 622.498 380.348C630.237 386.367 639.641 389.376 650.712 389.376C661.89 389.376 671.348 386.313 679.087 380.187C686.825 373.953 692.683 365.354 696.66 354.391C700.744 343.321 702.786 330.584 702.786 316.182C702.786 301.887 700.798 289.312 696.821 278.456C692.844 267.6 686.987 259.109 679.248 252.983C671.509 246.857 661.997 243.793 650.712 243.793C639.534 243.793 630.075 246.749 622.337 252.661C614.705 258.572 608.848 266.955 604.763 277.811C600.679 288.667 598.637 301.457 598.637 316.182ZM809.625 532.864V192.364H877.338V233.959H880.401C883.41 227.295 887.763 220.524 893.46 213.645C899.264 206.659 906.787 200.855 916.031 196.233C925.382 191.504 936.99 189.139 950.855 189.139C968.911 189.139 985.571 193.868 1000.83 203.327C1016.1 212.678 1028.29 226.811 1037.43 245.728C1046.57 264.537 1051.13 288.129 1051.13 316.504C1051.13 344.127 1046.67 367.45 1037.75 386.474C1028.94 405.391 1016.9 419.74 1001.64 429.521C986.485 439.194 969.503 444.031 950.693 444.031C937.366 444.031 926.027 441.827 916.676 437.42C907.432 433.014 899.855 427.478 893.943 420.815C888.032 414.043 883.518 407.218 880.401 400.339H878.305V532.864H809.625ZM876.854 316.182C876.854 330.907 878.896 343.751 882.98 354.714C887.065 365.677 892.976 374.222 900.715 380.348C908.453 386.367 917.858 389.376 928.929 389.376C940.107 389.376 949.565 386.313 957.304 380.187C965.042 373.953 970.9 365.354 974.877 354.391C978.961 343.321 981.003 330.584 981.003 316.182C981.003 301.887 979.015 289.312 975.038 278.456C971.061 267.6 965.203 259.109 957.465 252.983C949.726 246.857 940.214 243.793 928.929 243.793C917.751 243.793 908.292 246.749 900.554 252.661C892.922 258.572 887.065 266.955 882.98 277.811C878.896 288.667 876.854 301.457 876.854 316.182ZM1293.88 262.979L1231.01 266.848C1229.93 261.474 1227.62 256.637 1224.07 252.338C1220.53 247.931 1215.85 244.438 1210.05 241.859C1204.35 239.172 1197.53 237.828 1189.57 237.828C1178.93 237.828 1169.96 240.085 1162.65 244.599C1155.34 249.006 1151.69 254.918 1151.69 262.334C1151.69 268.245 1154.05 273.243 1158.78 277.327C1163.51 281.412 1171.62 284.69 1183.12 287.162L1227.94 296.19C1252.02 301.134 1269.97 309.088 1281.79 320.051C1293.61 331.014 1299.53 345.417 1299.53 363.259C1299.53 379.488 1294.74 393.729 1285.18 405.982C1275.72 418.235 1262.71 427.801 1246.16 434.68C1229.72 441.451 1210.75 444.837 1189.25 444.837C1156.47 444.837 1130.35 438.012 1110.9 424.362C1091.55 410.604 1080.21 391.902 1076.88 368.256L1144.43 364.71C1146.47 374.705 1151.42 382.336 1159.26 387.603C1167.11 392.762 1177.16 395.342 1189.41 395.342C1201.45 395.342 1211.12 393.031 1218.43 388.409C1225.85 383.68 1229.61 377.607 1229.72 370.191C1229.61 363.957 1226.98 358.852 1221.82 354.875C1216.66 350.791 1208.7 347.674 1197.96 345.524L1155.07 336.979C1130.89 332.143 1112.88 323.759 1101.06 311.829C1089.35 299.898 1083.49 284.69 1083.49 266.203C1083.49 250.296 1087.79 236.592 1096.39 225.092C1105.09 213.591 1117.29 204.724 1132.98 198.49C1148.78 192.256 1167.27 189.139 1188.44 189.139C1219.72 189.139 1244.33 195.749 1262.28 208.969C1280.34 222.19 1290.87 240.193 1293.88 262.979ZM1346.27 440V109.818H1384.32V231.702H1387.54C1390.34 227.402 1394.2 221.921 1399.15 215.257C1404.2 208.486 1411.4 202.467 1420.75 197.2C1430.21 191.826 1443 189.139 1459.12 189.139C1479.97 189.139 1498.35 194.352 1514.26 204.778C1530.17 215.203 1542.58 229.982 1551.5 249.114C1560.42 268.245 1564.88 290.816 1564.88 316.827C1564.88 343.052 1560.42 365.784 1551.5 385.023C1542.58 404.155 1530.22 418.987 1514.42 429.521C1498.62 439.946 1480.4 445.159 1459.77 445.159C1443.86 445.159 1431.12 442.526 1421.56 437.259C1411.99 431.885 1404.63 425.812 1399.47 419.041C1394.31 412.162 1390.34 406.466 1387.54 401.952H1383.03V440H1346.27ZM1383.67 316.182C1383.67 334.884 1386.41 351.382 1391.89 365.677C1397.38 379.864 1405.38 390.989 1415.92 399.05C1426.45 407.003 1439.35 410.98 1454.61 410.98C1470.52 410.98 1483.79 406.788 1494.43 398.405C1505.18 389.914 1513.24 378.521 1518.61 364.226C1524.1 349.823 1526.84 333.809 1526.84 316.182C1526.84 298.77 1524.15 283.078 1518.78 269.105C1513.51 255.025 1505.5 243.901 1494.75 235.732C1484.11 227.456 1470.73 223.318 1454.61 223.318C1439.13 223.318 1426.13 227.241 1415.59 235.087C1405.06 242.826 1397.11 253.682 1391.73 267.654C1386.36 281.519 1383.67 297.695 1383.67 316.182ZM1717.83 445.159C1693.97 445.159 1673.39 439.893 1656.08 429.359C1638.89 418.719 1625.61 403.886 1616.26 384.862C1607.02 365.731 1602.4 343.482 1602.4 318.116C1602.4 292.751 1607.02 270.395 1616.26 251.048C1625.61 231.594 1638.62 216.439 1655.28 205.584C1672.05 194.621 1691.61 189.139 1713.96 189.139C1726.86 189.139 1739.6 191.289 1752.17 195.588C1764.75 199.887 1776.19 206.874 1786.51 216.547C1796.83 226.113 1805.05 238.795 1811.18 254.595C1817.31 270.395 1820.37 289.849 1820.37 312.957V329.08H1629.48V296.19H1781.68C1781.68 282.218 1778.88 269.75 1773.29 258.787C1767.81 247.824 1759.97 239.172 1749.75 232.83C1739.65 226.489 1727.72 223.318 1713.96 223.318C1698.81 223.318 1685.7 227.08 1674.63 234.604C1663.66 242.02 1655.22 251.693 1649.31 263.624C1643.4 275.554 1640.45 288.344 1640.45 301.994V323.92C1640.45 342.622 1643.67 358.476 1650.12 371.481C1656.68 384.379 1665.76 394.213 1677.37 400.984C1688.97 407.648 1702.46 410.98 1717.83 410.98C1727.83 410.98 1736.86 409.583 1744.92 406.788C1753.09 403.886 1760.13 399.587 1766.04 393.891C1771.95 388.087 1776.52 380.885 1779.74 372.287L1816.5 382.605C1812.63 395.073 1806.13 406.036 1796.99 415.494C1787.86 424.845 1776.57 432.154 1763.14 437.42C1749.7 442.58 1734.6 445.159 1717.83 445.159ZM1869.17 440V192.364H1905.93V229.767H1908.51C1913.02 217.514 1921.19 207.572 1933.01 199.941C1944.83 192.31 1958.16 188.494 1972.99 188.494C1975.79 188.494 1979.28 188.548 1983.47 188.656C1987.67 188.763 1990.84 188.924 1992.99 189.139V227.832C1991.7 227.51 1988.74 227.026 1984.12 226.381C1979.6 225.629 1974.82 225.253 1969.77 225.253C1957.73 225.253 1946.98 227.779 1937.53 232.83C1928.18 237.774 1920.76 244.653 1915.28 253.467C1909.9 262.173 1907.22 272.115 1907.22 283.293V440H1869.17ZM2121.43 538.023C2103.05 538.023 2087.25 535.658 2074.03 530.929C2060.81 526.307 2049.79 520.181 2040.98 512.55C2032.27 505.026 2025.34 496.965 2020.18 488.366L2050.49 467.085C2053.93 471.599 2058.28 476.759 2063.55 482.562C2068.82 488.474 2076.02 493.579 2085.15 497.879C2094.4 502.285 2106.49 504.489 2121.43 504.489C2141.42 504.489 2157.92 499.652 2170.92 489.979C2183.93 480.305 2190.43 465.151 2190.43 444.514V394.213H2187.21C2184.41 398.727 2180.44 404.316 2175.28 410.98C2170.22 417.536 2162.92 423.394 2153.35 428.553C2143.89 433.605 2131.1 436.131 2114.98 436.131C2094.99 436.131 2077.04 431.402 2061.13 421.943C2045.33 412.485 2032.81 398.727 2023.57 380.67C2014.43 362.614 2009.86 340.687 2009.86 314.892C2009.86 289.527 2014.32 267.439 2023.24 248.63C2032.17 229.713 2044.58 215.096 2060.49 204.778C2076.39 194.352 2094.77 189.139 2115.62 189.139C2131.75 189.139 2144.54 191.826 2153.99 197.2C2163.56 202.467 2170.87 208.486 2175.92 215.257C2181.08 221.921 2185.06 227.402 2187.85 231.702H2191.72V192.364H2228.48V447.094C2228.48 468.375 2223.64 485.679 2213.97 499.007C2204.4 512.442 2191.51 522.277 2175.28 528.511C2159.15 534.852 2141.2 538.023 2121.43 538.023ZM2120.14 401.952C2135.4 401.952 2148.3 398.459 2158.83 391.472C2169.36 384.486 2177.37 374.437 2182.85 361.324C2188.34 348.211 2191.08 332.519 2191.08 314.247C2191.08 296.405 2188.39 280.659 2183.01 267.009C2177.64 253.359 2169.69 242.665 2159.15 234.926C2148.62 227.187 2135.62 223.318 2120.14 223.318C2104.02 223.318 2090.58 227.402 2079.83 235.571C2069.19 243.74 2061.19 254.703 2055.81 268.46C2050.54 282.218 2047.91 297.48 2047.91 314.247C2047.91 331.444 2050.6 346.653 2055.97 359.873C2061.45 372.986 2069.51 383.304 2080.16 390.827C2090.9 398.244 2104.23 401.952 2120.14 401.952Z" fill="#2F2F2F"/>
</svg>
