<svg width="606" height="974" viewBox="0 0 606 974" fill="none" xmlns="http://www.w3.org/2000/svg">
<path d="M268.633 1.25855C196.767 9.52522 133.433 40.5919 83.9667 91.5252C38.5 138.325 11.4333 193.792 1.7 260.059C-0.566667 275.525 -0.566667 319.925 1.7 338.059C7.96667 388.192 29.7 452.059 55.7 497.259L60.2333 505.125L61.1667 500.592C62.3667 494.459 68.2333 483.259 73.8333 476.325C83.5667 464.325 99.8333 454.059 114.233 450.725C120.9 449.259 131.167 448.725 153.833 448.725H184.633V435.259V421.792L176.233 412.192C154.367 387.659 142.367 365.792 134.633 336.459C114.1 258.192 152.1 175.525 225.7 138.859C247.567 127.925 278.5 120.725 303.567 120.725C349.3 120.725 390.5 136.992 423.033 168.059C449.167 192.859 465.833 222.325 473.433 256.992C476.767 272.192 477.433 304.192 474.767 320.192C468.9 354.325 454.1 384.325 429.167 412.192L420.633 421.792V435.259V448.725H451.833C487.3 448.725 493.433 449.525 506.767 456.192C523.833 464.592 537.567 479.925 543.433 496.992L545.567 503.525L555.7 483.792C580.1 435.792 594.9 390.992 601.967 343.392C605.833 317.925 606.1 280.459 602.767 257.392C591.433 180.859 553.7 114.592 493.3 65.2586C454.233 33.2586 401.567 10.3252 349.7 2.59188C330.5 -0.208116 287.7 -0.874782 268.633 1.25855Z" fill="#0F4F7C"/>
<path d="M243.033 384.592C228.766 389.259 220.366 396.592 214.1 410.059C210.766 417.125 210.633 418.459 210.233 445.659L209.7 473.925L164.233 474.325L118.633 474.725L110.633 478.459C100.366 483.259 91.0331 493.125 87.6998 502.459C85.5665 508.592 85.2998 514.192 85.2998 548.725V587.925L102.633 592.325C124.1 597.792 157.433 603.925 184.633 607.259C201.966 609.525 249.833 614.059 255.966 614.059C257.166 614.059 257.833 611.125 258.233 603.392C258.633 594.459 259.166 592.325 261.7 589.792C264.633 586.725 265.3 586.725 300.633 586.325C346.633 585.792 347.3 586.059 347.3 605.525C347.3 611.925 347.7 614.059 349.166 614.059C356.9 614.059 407.3 609.392 427.966 606.725C457.966 602.859 474.366 599.792 501.033 593.125L520.633 588.192V549.259C520.633 502.059 520.233 500.325 507.966 487.925C501.566 481.392 498.233 479.259 491.433 476.992C483.3 474.192 480.366 474.059 439.033 474.059H395.3V449.659C395.3 415.392 392.766 406.859 378.366 393.925C365.833 382.859 365.966 382.859 304.633 382.459C255.3 382.192 249.966 382.325 243.033 384.592ZM353.3 427.925C355.033 430.459 355.3 434.859 355.033 452.192L354.633 473.392H302.633H250.633V451.259C250.633 434.459 251.033 428.592 252.5 426.992C254.1 424.992 259.3 424.725 302.766 424.725H351.3L353.3 427.925Z" fill="#0F4F7C"/>
<path d="M283.3 634.725V656.725H303.033H322.633V634.725V612.725H303.033H283.3V634.725Z" fill="#0F4F7C"/>
<path d="M84.9002 682.992C85.4335 760.059 85.1669 757.925 95.0335 772.725C101.434 782.059 111.167 789.392 121.834 792.725C128.9 794.992 134.1 795.392 155.167 795.392L179.967 795.525L227.967 871.659C294.634 977.659 289.167 969.392 295.567 972.059C302.234 974.725 309.3 973.792 314.234 969.659C316.1 968.059 332.367 943.259 350.5 914.725C368.5 886.059 392.767 847.659 404.367 829.392L425.567 796.059L452.767 795.259C482.234 794.459 486.234 793.659 497.167 786.192C505.3 780.592 511.034 773.525 515.834 763.392L519.967 754.725L520.367 684.192C520.767 616.859 520.634 613.792 518.367 614.725C506.234 619.525 459.034 629.525 427.3 633.925C406.234 636.859 365.567 640.725 354.367 640.725H347.3V656.725C347.3 673.925 346.1 678.325 341.034 680.592C338.9 681.525 325.434 682.059 301.967 682.059H266.1L262.367 678.859C258.634 675.659 258.634 675.392 258.234 658.192L257.7 640.725H251.567C241.967 640.725 203.7 636.992 180.634 633.925C156.767 630.725 114.234 622.192 97.8335 617.392C91.7002 615.659 86.1002 614.059 85.5669 614.059C85.0335 614.059 84.7669 645.125 84.9002 682.992Z" fill="#0F4F7C"/>
</svg>
